REM DIRINDEX 1\6,1\2\7,1\2\8,1\2\9,1\3\10,1\3\11,1\4\12,1\4\13,1\4\14,1\5\15,1\5\16,1\5\17
REM DIRNAME folder01,folder02,folder03,folder04,folder05,folder06,folder07,folder08,folder09,folder10,folder11,folder12,folder13,folder14,folder15,folder16,folder17
TITLE ""
FILE "P2Q_t2_0036-0053.mp3" MP3
  TRACK 01 AUDIO
    TITLE "7:cjc040_3934"
    INDEX 01 00:00:00
  TRACK 02 AUDIO
    TITLE "0:"
    INDEX 01 00:01:11
  TRACK 03 AUDIO
    TITLE "8:cjc040_3935"
    INDEX 01 00:01:68
  TRACK 04 AUDIO
    TITLE "0:"
    INDEX 01 00:05:10
  TRACK 05 AUDIO
    TITLE "9:cjc040_3936"
    INDEX 01 00:05:56
  TRACK 06 AUDIO
    TITLE "0:"
    INDEX 01 00:07:05
  TRACK 07 AUDIO
    TITLE "7:cjc040_3937"
    INDEX 01 00:08:58
  TRACK 08 AUDIO
    TITLE "0:"
    INDEX 01 00:09:69
  TRACK 09 AUDIO
    TITLE "8:cjc040_3938"
    INDEX 01 00:10:49
  TRACK 10 AUDIO
    TITLE "0:"
    INDEX 01 00:12:07
  TRACK 11 AUDIO
    TITLE "9:cjc040_3939"
    INDEX 01 00:12:61
  TRACK 12 AUDIO
    TITLE "0:"
    INDEX 01 00:13:73
  TRACK 13 AUDIO
    TITLE "7:cjc040_3940"
    INDEX 01 00:15:52
  TRACK 14 AUDIO
    TITLE "0:"
    INDEX 01 00:16:65
  TRACK 15 AUDIO
    TITLE "8:cjc040_3941"
    INDEX 01 00:17:43
  TRACK 16 AUDIO
    TITLE "0:"
    INDEX 01 00:20:28
  TRACK 17 AUDIO
    TITLE "9:cjc040_3942"
    INDEX 01 00:21:02
  TRACK 18 AUDIO
    TITLE "0:"
    INDEX 01 00:22:17
  TRACK 19 AUDIO
    TITLE "7:cjc040_3943"
    INDEX 01 00:23:71
  TRACK 20 AUDIO
    TITLE "0:"
    INDEX 01 00:24:72
  TRACK 21 AUDIO
    TITLE "8:cjc040_3944"
    INDEX 01 00:25:48
  TRACK 22 AUDIO
    TITLE "0:"
    INDEX 01 00:31:35
  TRACK 23 AUDIO
    TITLE "9:cjc040_3945"
    INDEX 01 00:32:11
  TRACK 24 AUDIO
    TITLE "0:"
    INDEX 01 00:33:21
  TRACK 25 AUDIO
    TITLE "7:cjc040_3946"
    INDEX 01 00:35:04
  TRACK 26 AUDIO
    TITLE "0:"
    INDEX 01 00:36:19
  TRACK 27 AUDIO
    TITLE "8:cjc040_3947"
    INDEX 01 00:36:72
  TRACK 28 AUDIO
    TITLE "0:"
    INDEX 01 00:38:26
  TRACK 29 AUDIO
    TITLE "9:cjc040_3948"
    INDEX 01 00:39:00
  TRACK 30 AUDIO
    TITLE "0:"
    INDEX 01 00:40:19
  TRACK 31 AUDIO
    TITLE "7:cjc040_3949"
    INDEX 01 00:42:00
  TRACK 32 AUDIO
    TITLE "0:"
    INDEX 01 00:42:74
  TRACK 33 AUDIO
    TITLE "8:cjc040_3950"
    INDEX 01 00:43:56
  TRACK 34 AUDIO
    TITLE "0:"
    INDEX 01 00:46:17
  TRACK 35 AUDIO
    TITLE "9:cjc040_3951"
    INDEX 01 00:46:66
  TRACK 36 AUDIO
    TITLE "0:"
    INDEX 01 00:47:72
  TRACK 37 AUDIO
    TITLE "7:cjc040_3952"
    INDEX 01 00:49:53
  TRACK 38 AUDIO
    TITLE "0:"
    INDEX 01 00:50:62
  TRACK 39 AUDIO
    TITLE "8:cjc040_3953"
    INDEX 01 00:51:38
  TRACK 40 AUDIO
    TITLE "0:"
    INDEX 01 00:54:17
  TRACK 41 AUDIO
    TITLE "9:cjc040_3954"
    INDEX 01 00:54:66
  TRACK 42 AUDIO
    TITLE "0:"
    INDEX 01 00:56:00
  TRACK 43 AUDIO
    TITLE "7:cjc040_3955"
    INDEX 01 00:57:52
  TRACK 44 AUDIO
    TITLE "0:"
    INDEX 01 00:58:60
  TRACK 45 AUDIO
    TITLE "8:cjc040_3956"
    INDEX 01 00:59:36
  TRACK 46 AUDIO
    TITLE "0:"
    INDEX 01 01:02:30
  TRACK 47 AUDIO
    TITLE "9:cjc040_3957"
    INDEX 01 01:03:04
  TRACK 48 AUDIO
    TITLE "0:"
    INDEX 01 01:04:15
  TRACK 49 AUDIO
    TITLE "7:cjc040_3958"
    INDEX 01 01:05:66
  TRACK 50 AUDIO
    TITLE "0:"
    INDEX 01 01:06:73
  TRACK 51 AUDIO
    TITLE "8:cjc040_3959"
    INDEX 01 01:07:49
  TRACK 52 AUDIO
    TITLE "0:"
    INDEX 01 01:08:70
  TRACK 53 AUDIO
    TITLE "9:cjc040_3960"
    INDEX 01 01:09:50
  TRACK 54 AUDIO
    TITLE "0:"
    INDEX 01 01:10:55
  TRACK 55 AUDIO
    TITLE "7:cjc040_3961"
    INDEX 01 01:12:36
  TRACK 56 AUDIO
    TITLE "0:"
    INDEX 01 01:13:51
  TRACK 57 AUDIO
    TITLE "8:cjc040_3962"
    INDEX 01 01:14:29
  TRACK 58 AUDIO
    TITLE "0:"
    INDEX 01 01:15:66
  TRACK 59 AUDIO
    TITLE "9:cjc040_3963"
    INDEX 01 01:16:40
  TRACK 60 AUDIO
    TITLE "0:"
    INDEX 01 01:17:55
  TRACK 61 AUDIO
    TITLE "7:cjc040_3964"
    INDEX 01 01:19:32
  TRACK 62 AUDIO
    TITLE "0:"
    INDEX 01 01:20:49
  TRACK 63 AUDIO
    TITLE "8:cjc040_3965"
    INDEX 01 01:21:25
  TRACK 64 AUDIO
    TITLE "0:"
    INDEX 01 01:22:68
  TRACK 65 AUDIO
    TITLE "9:cjc040_3966"
    INDEX 01 01:23:42
  TRACK 66 AUDIO
    TITLE "0:"
    INDEX 01 01:24:59
  TRACK 67 AUDIO
    TITLE "7:cjc040_3967"
    INDEX 01 01:26:42
  TRACK 68 AUDIO
    TITLE "0:"
    INDEX 01 01:27:63
  TRACK 69 AUDIO
    TITLE "8:cjc040_3968"
    INDEX 01 01:28:39
  TRACK 70 AUDIO
    TITLE "0:"
    INDEX 01 01:30:07
  TRACK 71 AUDIO
    TITLE "9:cjc040_3969"
    INDEX 01 01:30:58
  TRACK 72 AUDIO
    TITLE "0:"
    INDEX 01 01:32:02
  TRACK 73 AUDIO
    TITLE "7:cjc040_3970"
    INDEX 01 01:33:66
  TRACK 74 AUDIO
    TITLE "0:"
    INDEX 01 01:35:16
  TRACK 75 AUDIO
    TITLE "8:cjc040_3971"
    INDEX 01 01:35:69
  TRACK 76 AUDIO
    TITLE "0:"
    INDEX 01 01:38:32
  TRACK 77 AUDIO
    TITLE "9:cjc040_3972"
    INDEX 01 01:39:12
  TRACK 78 AUDIO
    TITLE "0:"
    INDEX 01 01:40:46
  TRACK 79 AUDIO
    TITLE "7:cjc040_3973"
    INDEX 01 01:42:26
  TRACK 80 AUDIO
    TITLE "0:"
    INDEX 01 01:43:62
  TRACK 81 AUDIO
    TITLE "8:cjc040_3974"
    INDEX 01 01:44:36
  TRACK 82 AUDIO
    TITLE "0:"
    INDEX 01 01:47:42
  TRACK 83 AUDIO
    TITLE "9:cjc040_3975"
    INDEX 01 01:48:20
  TRACK 84 AUDIO
    TITLE "0:"
    INDEX 01 01:49:61
  TRACK 85 AUDIO
    TITLE "7:cjc040_3976"
    INDEX 01 01:51:44
  TRACK 86 AUDIO
    TITLE "0:"
    INDEX 01 01:52:53
  TRACK 87 AUDIO
    TITLE "8:cjc040_3977"
    INDEX 01 01:53:33
  TRACK 88 AUDIO
    TITLE "0:"
    INDEX 01 01:55:09
  TRACK 89 AUDIO
    TITLE "9:cjc040_3978"
    INDEX 01 01:55:63
  TRACK 90 AUDIO
    TITLE "0:"
    INDEX 01 01:57:02
  TRACK 91 AUDIO
    TITLE "7:cjc040_3979"
    INDEX 01 01:58:62
  TRACK 92 AUDIO
    TITLE "0:"
    INDEX 01 02:00:10
  TRACK 93 AUDIO
    TITLE "8:cjc040_3980"
    INDEX 01 02:00:65
  TRACK 94 AUDIO
    TITLE "0:"
    INDEX 01 02:04:68
  TRACK 95 AUDIO
    TITLE "9:cjc040_3981"
    INDEX 01 02:05:48
  TRACK 96 AUDIO
    TITLE "0:"
    INDEX 01 02:07:00
  TRACK 97 AUDIO
    TITLE "7:cjc040_3982"
    INDEX 01 02:08:50
  TRACK 98 AUDIO
    TITLE "0:"
    INDEX 01 02:09:52
  TRACK 99 AUDIO
    TITLE "8:cjc040_3983"
    INDEX 01 02:10:32
  TRACK 100 AUDIO
    TITLE "0:"
    INDEX 01 02:15:70
  TRACK 101 AUDIO
    TITLE "9:cjc040_3984"
    INDEX 01 02:16:52
  TRACK 102 AUDIO
    TITLE "0:"
    INDEX 01 02:17:57
  TRACK 103 AUDIO
    TITLE "7:cjc040_3985"
    INDEX 01 02:19:42
  TRACK 104 AUDIO
    TITLE "0:"
    INDEX 01 02:20:58
  TRACK 105 AUDIO
    TITLE "8:cjc040_3986"
    INDEX 01 02:21:37
  TRACK 106 AUDIO
    TITLE "0:"
    INDEX 01 02:26:09
  TRACK 107 AUDIO
    TITLE "9:cjc040_3987"
    INDEX 01 02:26:64
  TRACK 108 AUDIO
    TITLE "0:"
    INDEX 01 02:28:06
